<svg id="visual" viewBox="0 0 900 600" width="900" height="600" xmlns="http://www.w3.org/2000/svg" xmlns:xlink="http://www.w3.org/1999/xlink" version="1.1"><rect width="900" height="600" fill="#001829"></rect><g><g transform="translate(275 360)"><path d="M0 -48.6L38 -30.3L47.4 10.8L21.1 43.8L-21.1 43.8L-47.4 10.8L-38 -30.3Z" fill="#297EA6"></path></g><g transform="translate(887 113)"><path d="M0 -20L15.6 -12.5L19.5 4.5L8.7 18L-8.7 18L-19.5 4.5L-15.6 -12.5Z" fill="#297EA6"></path></g><g transform="translate(227 26)"><path d="M0 -16L12.5 -10L15.6 3.6L6.9 14.4L-6.9 14.4L-15.6 3.6L-12.5 -10Z" fill="#297EA6"></path></g><g transform="translate(837 566)"><path d="M0 -24L18.8 -15L23.4 5.3L10.4 21.6L-10.4 21.6L-23.4 5.3L-18.8 -15Z" fill="#297EA6"></path></g><g transform="translate(491 32)"><path d="M0 -41L32.1 -25.6L40 9.1L17.8 36.9L-17.8 36.9L-40 9.1L-32.1 -25.6Z" fill="#297EA6"></path></g><g transform="translate(318 449)"><path d="M0 -39L30.5 -24.3L38 8.7L16.9 35.1L-16.9 35.1L-38 8.7L-30.5 -24.3Z" fill="#297EA6"></path></g><g transform="translate(377 245)"><path d="M0 -35L27.4 -21.8L34.1 7.8L15.2 31.5L-15.2 31.5L-34.1 7.8L-27.4 -21.8Z" fill="#297EA6"></path></g><g transform="translate(62 325)"><path d="M0 -44L34.4 -27.4L42.9 9.8L19.1 39.6L-19.1 39.6L-42.9 9.8L-34.4 -27.4Z" fill="#297EA6"></path></g><g transform="translate(220 458)"><path d="M0 -36L28.1 -22.4L35.1 8L15.6 32.4L-15.6 32.4L-35.1 8L-28.1 -22.4Z" fill="#297EA6"></path></g><g transform="translate(442 343)"><path d="M0 -30L23.5 -18.7L29.2 6.7L13 27L-13 27L-29.2 6.7L-23.5 -18.7Z" fill="#297EA6"></path></g><g transform="translate(758 477)"><path d="M0 -10L7.8 -6.2L9.7 2.2L4.3 9L-4.3 9L-9.7 2.2L-7.8 -6.2Z" fill="#297EA6"></path></g><g transform="translate(554 204)"><path d="M0 -17L13.3 -10.6L16.6 3.8L7.4 15.3L-7.4 15.3L-16.6 3.8L-13.3 -10.6Z" fill="#297EA6"></path></g><g transform="translate(451 466)"><path d="M0 -14L10.9 -8.7L13.6 3.1L6.1 12.6L-6.1 12.6L-13.6 3.1L-10.9 -8.7Z" fill="#297EA6"></path></g><g transform="translate(711 226)"><path d="M0 -44L34.4 -27.4L42.9 9.8L19.1 39.6L-19.1 39.6L-42.9 9.8L-34.4 -27.4Z" fill="#297EA6"></path></g><g transform="translate(40 65)"><path d="M0 -16L12.5 -10L15.6 3.6L6.9 14.4L-6.9 14.4L-15.6 3.6L-12.5 -10Z" fill="#297EA6"></path></g><g transform="translate(640 479)"><path d="M0 -24L18.8 -15L23.4 5.3L10.4 21.6L-10.4 21.6L-23.4 5.3L-18.8 -15Z" fill="#297EA6"></path></g><g transform="translate(69 530)"><path d="M0 -13L10.2 -8.1L12.7 2.9L5.6 11.7L-5.6 11.7L-12.7 2.9L-10.2 -8.1Z" fill="#297EA6"></path></g><g transform="translate(725 361)"><path d="M0 -8L6.3 -5L7.8 1.8L3.5 7.2L-3.5 7.2L-7.8 1.8L-6.3 -5Z" fill="#297EA6"></path></g><g transform="translate(459 596)"><path d="M0 -13L10.2 -8.1L12.7 2.9L5.6 11.7L-5.6 11.7L-12.7 2.9L-10.2 -8.1Z" fill="#297EA6"></path></g><g transform="translate(344 553)"><path d="M0 -26L20.3 -16.2L25.3 5.8L11.3 23.4L-11.3 23.4L-25.3 5.8L-20.3 -16.2Z" fill="#297EA6"></path></g><g transform="translate(356 114)"><path d="M0 -33L25.8 -20.6L32.2 7.3L14.3 29.7L-14.3 29.7L-32.2 7.3L-25.8 -20.6Z" fill="#297EA6"></path></g><g transform="translate(871 298)"><path d="M0 -10L7.8 -6.2L9.7 2.2L4.3 9L-4.3 9L-9.7 2.2L-7.8 -6.2Z" fill="#297EA6"></path></g><g transform="translate(679 106)"><path d="M0 -22L17.2 -13.7L21.4 4.9L9.5 19.8L-9.5 19.8L-21.4 4.9L-17.2 -13.7Z" fill="#297EA6"></path></g><g transform="translate(831 394)"><path d="M0 -10L7.8 -6.2L9.7 2.2L4.3 9L-4.3 9L-9.7 2.2L-7.8 -6.2Z" fill="#297EA6"></path></g><g transform="translate(175 568)"><path d="M0 -18L14.1 -11.2L17.5 4L7.8 16.2L-7.8 16.2L-17.5 4L-14.1 -11.2Z" fill="#297EA6"></path></g><g transform="translate(655 579)"><path d="M0 -38L29.7 -23.7L37 8.5L16.5 34.2L-16.5 34.2L-37 8.5L-29.7 -23.7Z" fill="#297EA6"></path></g><g transform="translate(174 213)"><path d="M0 -11L8.6 -6.9L10.7 2.4L4.8 9.9L-4.8 9.9L-10.7 2.4L-8.6 -6.9Z" fill="#297EA6"></path></g><g transform="translate(573 401)"><path d="M0 -29L22.7 -18.1L28.3 6.5L12.6 26.1L-12.6 26.1L-28.3 6.5L-22.7 -18.1Z" fill="#297EA6"></path></g><g transform="translate(376 4)"><path d="M0 -26L20.3 -16.2L25.3 5.8L11.3 23.4L-11.3 23.4L-25.3 5.8L-20.3 -16.2Z" fill="#297EA6"></path></g><g transform="translate(786 92)"><path d="M0 -42L32.8 -26.2L40.9 9.3L18.2 37.8L-18.2 37.8L-40.9 9.3L-32.8 -26.2Z" fill="#297EA6"></path></g><g transform="translate(139 106)"><path d="M0 -15L11.7 -9.4L14.6 3.3L6.5 13.5L-6.5 13.5L-14.6 3.3L-11.7 -9.4Z" fill="#297EA6"></path></g><g transform="translate(57 178)"><path d="M0 -26L20.3 -16.2L25.3 5.8L11.3 23.4L-11.3 23.4L-25.3 5.8L-20.3 -16.2Z" fill="#297EA6"></path></g><g transform="translate(682 4)"><path d="M0 -45L35.2 -28.1L43.9 10L19.5 40.5L-19.5 40.5L-43.9 10L-35.2 -28.1Z" fill="#297EA6"></path></g><g transform="translate(866 3)"><path d="M0 -8L6.3 -5L7.8 1.8L3.5 7.2L-3.5 7.2L-7.8 1.8L-6.3 -5Z" fill="#297EA6"></path></g><g transform="translate(159 353)"><path d="M0 -45L35.2 -28.1L43.9 10L19.5 40.5L-19.5 40.5L-43.9 10L-35.2 -28.1Z" fill="#297EA6"></path></g><g transform="translate(36 432)"><path d="M0 -12L9.4 -7.5L11.7 2.7L5.2 10.8L-5.2 10.8L-11.7 2.7L-9.4 -7.5Z" fill="#297EA6"></path></g><g transform="translate(572 92)"><path d="M0 -23L18 -14.3L22.4 5.1L10 20.7L-10 20.7L-22.4 5.1L-18 -14.3Z" fill="#297EA6"></path></g><g transform="translate(821 199)"><path d="M0 -45L35.2 -28.1L43.9 10L19.5 40.5L-19.5 40.5L-43.9 10L-35.2 -28.1Z" fill="#297EA6"></path></g><g transform="translate(896 481)"><path d="M0 -39L30.5 -24.3L38 8.7L16.9 35.1L-16.9 35.1L-38 8.7L-30.5 -24.3Z" fill="#297EA6"></path></g><g transform="translate(476 146)"><path d="M0 -35L27.4 -21.8L34.1 7.8L15.2 31.5L-15.2 31.5L-34.1 7.8L-27.4 -21.8Z" fill="#297EA6"></path></g><g transform="translate(117 5)"><path d="M0 -45L35.2 -28.1L43.9 10L19.5 40.5L-19.5 40.5L-43.9 10L-35.2 -28.1Z" fill="#297EA6"></path></g><g transform="translate(627 293)"><path d="M0 -39L30.5 -24.3L38 8.7L16.9 35.1L-16.9 35.1L-38 8.7L-30.5 -24.3Z" fill="#297EA6"></path></g><g transform="translate(549 534)"><path d="M0 -15L11.7 -9.4L14.6 3.3L6.5 13.5L-6.5 13.5L-14.6 3.3L-11.7 -9.4Z" fill="#297EA6"></path></g><g transform="translate(277 193)"><path d="M0 -14L10.9 -8.7L13.6 3.1L6.1 12.6L-6.1 12.6L-13.6 3.1L-10.9 -8.7Z" fill="#297EA6"></path></g></g></svg>