<?xml version="1.0" encoding="utf-8"?>
<!-- Generator: Adobe Illustrator 16.0.0, SVG Export Plug-In . SVG Version: 6.00 Build 0)  -->
<!DOCTYPE svg PUBLIC "-//W3C//DTD SVG 1.1//EN" "http://www.w3.org/Graphics/SVG/1.1/DTD/svg11.dtd">
<svg version="1.1" id="Layer_1" xmlns="http://www.w3.org/2000/svg" xmlns:xlink="http://www.w3.org/1999/xlink" x="0px" y="0px"
	 width="175px" height="100px" viewBox="0 0 175 100" enable-background="new 0 0 175 100" xml:space="preserve">

	<g>
		<path fill="#4878a8" d="M31.97,53.162v-3.737c0.942,0.377,1.947,0.681,3.015,0.911c1.067,0.23,2.104,0.346,3.109,0.346
			c1.57,0,2.674-0.146,3.313-0.439c0.638-0.293,0.958-0.9,0.958-1.822c0-0.606-0.147-1.088-0.44-1.444s-0.774-0.665-1.445-0.926
			c-0.67-0.262-1.717-0.592-3.14-0.989c-2.115-0.586-3.602-1.319-4.459-2.199c-0.859-0.879-1.288-2.093-1.288-3.644
			c0-1.863,0.681-3.297,2.042-4.302c1.36-1.005,3.339-1.507,5.936-1.507c1.172,0,2.287,0.079,3.344,0.235
			c1.057,0.157,1.921,0.361,2.591,0.613v3.737c-1.717-0.648-3.507-0.973-5.37-0.973c-1.424,0-2.486,0.157-3.188,0.47
			c-0.702,0.314-1.052,0.891-1.052,1.727c0,0.525,0.131,0.942,0.393,1.257c0.262,0.313,0.701,0.592,1.319,0.833
			c0.617,0.241,1.575,0.528,2.873,0.862c2.345,0.629,3.968,1.439,4.868,2.435c0.9,0.994,1.35,2.267,1.35,3.815
			c0,1.822-0.691,3.25-2.072,4.287c-1.382,1.036-3.423,1.555-6.124,1.555S33.624,53.896,31.97,53.162z"/>
		<path fill="#4878a8" d="M50.656,52.941c-0.838-0.879-1.256-2.114-1.256-3.706v-6.91h-2.104v-3.265H49.4v-3.204l4.239-1.257v4.46
			h3.769l-0.251,3.265h-3.518v6.626c0,0.797,0.183,1.352,0.55,1.666c0.366,0.313,0.958,0.471,1.774,0.471
			c0.586,0,1.193-0.105,1.822-0.314v2.92c-0.942,0.377-2.053,0.565-3.329,0.565C52.76,54.262,51.493,53.82,50.656,52.941z"/>
		<path fill="#4878a8" d="M60.643,52.754c-0.985-1.005-1.477-2.46-1.477-4.364v-9.328h4.24v9.233c0,0.984,0.235,1.706,0.707,2.167
			c0.471,0.46,1.198,0.69,2.183,0.69c0.711,0,1.376-0.143,1.994-0.424c0.618-0.284,1.157-0.654,1.618-1.117v-10.55h4.24v14.885
			h-3.926l-0.157-1.413c-1.445,1.151-3.193,1.728-5.245,1.728C63.019,54.262,61.626,53.759,60.643,52.754z"/>
		<path fill="#4878a8" d="M78.967,52.52c-1.225-1.164-1.837-3.021-1.837-5.576c0-1.716,0.319-3.191,0.958-4.427
			c0.639-1.236,1.496-2.172,2.575-2.811c1.078-0.639,2.288-0.958,3.627-0.958c1.633,0,3.026,0.377,4.178,1.13v-7.096h4.239v21.167
			h-3.645l-0.25-1.385c-0.649,0.566-1.361,0.99-2.136,1.273c-0.775,0.282-1.676,0.424-2.702,0.424
			C81.861,54.262,80.192,53.682,78.967,52.52z M86.959,50.838c0.523-0.209,1.026-0.554,1.508-1.036v-6.784
			c-0.88-0.775-1.906-1.162-3.078-1.162c-1.298,0-2.282,0.429-2.952,1.288s-1.005,2.125-1.005,3.799
			c0,1.528,0.309,2.613,0.927,3.252c0.618,0.639,1.543,0.958,2.779,0.958C85.83,51.152,86.437,51.048,86.959,50.838z"/>
		<path fill="#4878a8" d="M106.965,46.505c0-2.513,0.664-4.433,1.993-5.764c1.329-1.329,3.354-1.994,6.078-1.994
			c2.72,0,4.752,0.665,6.091,1.994c1.342,1.331,2.012,3.25,2.012,5.764c0,5.173-2.701,7.757-8.103,7.757
			C109.654,54.262,106.965,51.678,106.965,46.505z M117.973,49.708c0.574-0.628,0.862-1.695,0.862-3.203
			c0-1.508-0.288-2.576-0.862-3.204c-0.576-0.629-1.556-0.942-2.937-0.942c-1.36,0-2.33,0.313-2.906,0.942
			c-0.575,0.628-0.862,1.695-0.862,3.204c0,1.507,0.287,2.575,0.862,3.203c0.576,0.628,1.546,0.942,2.906,0.942
			C116.417,50.65,117.396,50.335,117.973,49.708z"/>
		<path fill="#4878a8" d="M27.249,55.712h4.239v8.573l7.789-8.573h4.868l-7.318,8.197l7.694,12.026h-4.522l-5.81-9.326l-2.701,2.92
			v6.406h-4.239V55.712z"/>
		<path fill="#4878a8" d="M44.804,68.494c0-2.514,0.665-4.434,1.994-5.764c1.33-1.328,3.355-1.994,6.077-1.994
			s4.753,0.666,6.093,1.994c1.34,1.33,2.011,3.25,2.011,5.764c0,5.172-2.702,7.757-8.104,7.757
			C47.495,76.251,44.804,73.666,44.804,68.494z M55.812,71.697c0.576-0.629,0.864-1.696,0.864-3.203
			c0-1.508-0.288-2.575-0.864-3.203c-0.576-0.629-1.555-0.943-2.937-0.943c-1.361,0-2.329,0.314-2.905,0.943
			c-0.576,0.628-0.863,1.695-0.863,3.203c0,1.507,0.287,2.574,0.863,3.203c0.576,0.628,1.543,0.941,2.905,0.941
			C54.257,72.641,55.235,72.325,55.812,71.697z"/>
		<path fill="#4878a8" d="M63.93,61.051h3.925l0.157,1.444c1.55-1.173,3.246-1.759,5.088-1.759c1.005,0,1.8,0.152,2.387,0.455
			c0.585,0.306,1.047,0.76,1.382,1.365c0.753-0.586,1.575-1.035,2.465-1.35s1.91-0.471,3.062-0.471c1.717,0,2.984,0.445,3.8,1.334
			c0.816,0.891,1.225,2.246,1.225,4.066v9.799h-4.177v-9.328c0-0.963-0.209-1.662-0.628-2.103c-0.419-0.44-1.089-0.659-2.01-0.659
			c-0.586,0-1.157,0.119-1.712,0.36c-0.555,0.239-1.031,0.569-1.429,0.987c0.104,0.356,0.157,0.785,0.157,1.289v9.451h-3.957v-9.326
			c0-0.963-0.167-1.664-0.502-2.104c-0.335-0.441-0.933-0.66-1.791-0.66c-1.067,0-2.157,0.533-3.266,1.602v10.488H63.93V61.051z"/>
		<path fill="#4878a8" d="M113.486,61.051h3.925l0.155,1.414c0.67-0.503,1.468-0.917,2.389-1.24
			c0.921-0.324,1.873-0.486,2.857-0.486c1.947,0,3.375,0.455,4.287,1.365c0.91,0.91,1.365,2.34,1.365,4.287v9.547h-4.24v-9.328
			c0-1.024-0.209-1.742-0.627-2.15c-0.42-0.406-1.173-0.611-2.263-0.611c-0.647,0-1.297,0.141-1.946,0.424
			c-0.648,0.283-1.203,0.653-1.664,1.115v10.551h-4.238V61.051L113.486,61.051z"/>
		<path fill="#4878a8" d="M133.506,74.288c-1.477-1.308-2.215-3.25-2.215-5.826c0-2.428,0.645-4.323,1.934-5.685
			c1.287-1.359,3.164-2.041,5.637-2.041c2.261,0,4.015,0.592,5.261,1.775c1.245,1.182,1.869,2.768,1.869,4.758v2.701h-10.773
			c0.209,1.149,0.738,1.957,1.589,2.416c0.846,0.461,2.098,0.691,3.75,0.691c0.797,0,1.607-0.073,2.436-0.221
			c0.826-0.146,1.533-0.334,2.119-0.563v3.015c-1.383,0.627-3.192,0.941-5.435,0.941C137.039,76.251,134.98,75.598,133.506,74.288z
			 M142.283,67.363v-0.816c0-1.842-1.1-2.763-3.297-2.763c-1.383,0-2.356,0.276-2.922,0.831c-0.564,0.556-0.849,1.471-0.849,2.748
			H142.283z"/>
		<path fill="#4878a8" d="M148.941,61.051h3.926l0.156,1.444c1.549-1.173,3.244-1.759,5.088-1.759c1.005,0,1.801,0.152,2.387,0.455
			c0.586,0.306,1.047,0.76,1.382,1.365c0.755-0.586,1.575-1.035,2.466-1.35s1.91-0.471,3.063-0.471c1.716,0,2.981,0.445,3.8,1.334
			c0.814,0.891,1.225,2.246,1.225,4.066v9.799h-4.177v-9.328c0-0.963-0.21-1.662-0.628-2.103c-0.42-0.44-1.09-0.659-2.011-0.659
			c-0.586,0-1.157,0.119-1.711,0.36c-0.556,0.239-1.031,0.569-1.429,0.987c0.104,0.356,0.156,0.785,0.156,1.289v9.451h-3.957v-9.326
			c0-0.963-0.168-1.664-0.504-2.104c-0.334-0.441-0.931-0.66-1.79-0.66c-1.067,0-2.155,0.533-3.265,1.602v10.488h-4.178V61.051
			L148.941,61.051z"/>
		<path fill="#4878a8" d="M3.185,66.648l5.177-7.508H3.463v-2.662h9.466v1.813l-5.121,7.433h5.232v2.662H3.185V66.648z"/>
		<path fill="#4878a8" d="M14.75,67.859c-0.586-0.475-0.878-1.174-0.878-2.1c0-0.938,0.311-1.656,0.934-2.162
			s1.55-0.759,2.783-0.759h2.274v-0.166c0-0.346-0.145-0.599-0.435-0.758c-0.29-0.161-0.786-0.241-1.488-0.241
			c-1.011,0-2.01,0.155-2.996,0.463v-2.089c0.456-0.187,1.017-0.335,1.682-0.444c0.666-0.11,1.338-0.166,2.015-0.166
			c1.43,0,2.543,0.293,3.338,0.879s1.192,1.477,1.192,2.672v5.398H20.14l-0.167-0.703c-0.666,0.592-1.664,0.887-2.995,0.887
			C16.078,68.57,15.335,68.334,14.75,67.859z M19.862,65.836v-1.093H18.18c-0.394,0-0.684,0.075-0.869,0.223
			s-0.277,0.376-0.277,0.685c0,0.593,0.376,0.888,1.128,0.888C18.864,66.537,19.431,66.305,19.862,65.836z"/>
		<path fill="#4878a8" d="M122.023,3.623c-4.762,0-8.793,3.114-10.176,7.416c-0.648-0.293-1.367-0.459-2.125-0.459
			c-2.857,0-5.175,2.317-5.175,5.174c0,0.173,0.009,0.345,0.025,0.515c-1.376,0.332-2.4,1.57-2.4,3.048
			c0,0.396,0.076,0.774,0.21,1.123c-2.49,0.195-4.451,2.275-4.451,4.815c0,2.67,2.164,4.835,4.834,4.835
			c1.799,0,3.363-0.982,4.196-2.438c0.946,0.678,2.103,1.083,3.354,1.083c2.483,0,4.595-1.571,5.404-3.772
			c-0.496,0.248-1.031,0.438-1.601,0.56c-3.604,0.769-7.151-1.529-7.92-5.135s1.53-7.151,5.134-7.92
			c3.605-0.769,7.152,1.531,7.921,5.135c0.509,2.382-0.323,4.738-1.985,6.283c1.433,0.712,3.045,1.115,4.754,1.115
			c5.9,0,10.688-4.785,10.688-10.688C132.711,8.409,127.925,3.623,122.023,3.623z M128.848,17.574
			c-2.969,2.037-7.024,1.281-9.063-1.687c-2.036-2.969-1.279-7.027,1.688-9.062c2.969-2.038,7.026-1.281,9.063,1.687
			C132.572,11.481,131.816,15.539,128.848,17.574z"/>
		<path fill="#4878a8" d="M107.626,57.859l-0.503-8.829c0,0-0.699-2.286-6.566-2.286c-5.869,0-6.498,2.286-6.498,2.286l-0.703,8.712
			c0,0,1.543-1.291,7.357-1.291S107.626,57.859,107.626,57.859z"/>
		<path fill="#4878a8" d="M100.576,45.016c-4.735,0-8.575,1.646-8.575,3.678c0,0.904,0.763,1.732,2.022,2.373l0.035-2.034
			c0,0,0.627-2.072,6.496-2.072c5.868,0,6.567,2.072,6.567,2.072l0.004,2.036c1.263-0.64,2.024-1.468,2.024-2.375
			C109.15,46.662,105.313,45.016,100.576,45.016z"/>
		<path fill="#4878a8" d="M105.95,39.67l-0.581-6.354c0,0-0.514-2.053-4.821-2.053c-4.31,0-4.771,2.053-4.771,2.053l-0.637,6.356
			c0,0,1.405-1.375,5.291-1.375C104.316,38.297,105.95,39.67,105.95,39.67z"/>

			<path fill="#4878a8" d="M100.548,63.618c-4.954,0-7.346,1.175-7.924,1.508l-0.899,9.386c0.705-0.476,3.233-1.658,8.653-1.658
				c5.254,0,7.774,1.146,8.573,1.688l-0.805-9.48C107.469,64.664,105.229,63.618,100.548,63.618z"/>
			<path fill="#4878a8" d="M110.415,88.482l-0.608-6.355c-0.916-0.396-3.69-1.242-9.332-1.242c-5.933,0-8.896,0.948-9.728,1.305
				l-0.685,6.293c0,0-0.232,1.248-0.232,2.424c0,1.582,1.307,2.947,10.23,2.947c9.09,0,10.612-1.16,10.612-2.947
				C110.674,89.822,110.415,88.482,110.415,88.482z"/>

		<path fill="#4878a8" d="M120.096,17.422c-0.867-4.068-4.869-6.663-8.938-5.795c-4.068,0.868-6.663,4.869-5.796,8.939
			c0.867,4.069,4.871,6.665,8.938,5.796C118.369,25.493,120.964,21.491,120.096,17.422z M114.121,25.521
			c-3.605,0.769-7.15-1.529-7.92-5.135c-0.77-3.606,1.529-7.151,5.134-7.92s7.151,1.531,7.921,5.135
			C120.025,21.207,117.727,24.752,114.121,25.521z"/>
		<circle fill="#4878a8" cx="116.615" cy="18.126" r="1.913"/>
		<circle fill="#4878a8" cx="108.75" cy="19.802" r="1.913"/>
		<circle fill="#4878a8" cx="113.521" cy="22.896" r="1.912"/>
		<circle fill="#4878a8" cx="112.684" cy="18.964" r="1.093"/>
		<circle fill="#4878a8" cx="111.843" cy="15.032" r="1.913"/>

			<path fill="#4878a8" d="M114.527,34.214c-0.821-3.851,0.387-5.162,2.578-7.541c0.127-0.138,0.259-0.28,0.393-0.426
				c3.499-3.823,1.713-8.861,1.695-8.911l0.789-0.29c0.021,0.057,0.511,1.408,0.531,3.286c0.027,2.498-0.801,4.739-2.396,6.482
				c-0.135,0.147-0.268,0.29-0.395,0.429c-2.133,2.314-3.104,3.37-2.375,6.796L114.527,34.214z"/>

			<path fill="#4878a8" d="M131.229,8.038c-2.299-3.351-6.877-4.203-10.229-1.904c-3.351,2.297-4.203,6.877-1.905,10.228
				c2.299,3.35,6.879,4.204,10.229,1.905C132.674,15.968,133.525,11.389,131.229,8.038z M128.848,17.574
				c-2.969,2.037-7.024,1.281-9.063-1.687c-2.036-2.969-1.279-7.027,1.688-9.062c2.969-2.038,7.026-1.281,9.063,1.687
				C132.572,11.481,131.816,15.539,128.848,17.574z"/>
			<circle fill="#4878a8" cx="122.93" cy="9.015" r="1.868"/>
			<circle fill="#4878a8" cx="127.373" cy="15.49" r="1.868"/>
			<circle fill="#4878a8" cx="128.389" cy="10.032" r="1.869"/>
			<circle fill="#4878a8" cx="125.15" cy="12.253" r="1.068"/>
			<circle fill="#4878a8" cx="121.913" cy="14.474" r="1.868"/>

				<path fill="#4878a8" d="M121.259,6.98l-0.557-0.604c0.044-0.04,1.081-0.985,2.769-1.704c2.246-0.956,4.577-1.042,6.744-0.251
					c0.186,0.067,0.361,0.133,0.534,0.197c2.884,1.064,4.199,1.549,7.021-0.386l0.465,0.677c-3.172,2.176-4.805,1.574-7.771,0.479
					c-0.17-0.064-0.348-0.129-0.53-0.195C125.166,3.453,121.297,6.945,121.259,6.98z"/>



</g>
</svg>
