<svg width="97" height="8" viewBox="0 0 97 8" fill="none" xmlns="http://www.w3.org/2000/svg">
<path d="M1.61614 1.17272L4.91835 7.61522H8.73823L11.9812 1.16851H13.6071V0.00012207H8.7159V1.16747H10.1281L7.76699 5.85998L5.37386 1.16851H7.09005V0.00116513H0V1.16957L1.61614 1.17272Z" fill="black"/>
<path d="M28.3485 0.00012207C25.0638 0.00012207 23.3195 1.76165 23.3195 3.97225C23.3195 6.21334 24.9997 8.00012 28.3699 8.00012C31.7401 8.00012 33.399 6.21229 33.399 3.97225C33.3971 1.76165 31.6333 0.00012207 28.3485 0.00012207ZM28.3126 6.79071C27.1131 6.76758 26.5858 5.34152 26.6091 3.92598C26.6324 2.45891 27.2889 1.18009 28.4088 1.20112C29.5286 1.22215 30.1259 2.52622 30.1016 3.99224C30.0783 5.37518 29.5471 6.8149 28.3116 6.79071H28.3126Z" fill="black"/>
<path d="M43.1133 1.16537V0.00012207H49.6556V1.16431H48.0239V6.42263H49.5342C49.8316 6.44886 50.1308 6.40757 50.4126 6.30139C50.6944 6.19522 50.9527 6.02651 51.1708 5.80605C51.3889 5.58559 51.5622 5.31824 51.6794 5.02112C51.7966 4.724 51.8553 4.40366 51.8516 4.08058H52.9306V7.60154H43.1114V6.42263H44.7625V1.16431L43.1133 1.16537Z" fill="black"/>
<path d="M64.2581 1.17272L67.5604 7.61522H71.3802L74.6232 1.16851H76.2481V0.00012207H71.3589V1.16747H72.7711L70.41 5.85998L68.0168 1.16851H69.733V0.00116513H62.643V1.16957L64.2581 1.17272Z" fill="black"/>
<path d="M90.9896 0.00012207C87.7048 0.00012207 85.9605 1.76165 85.9605 3.97225C85.9605 6.21334 87.6407 8.00012 91.0109 8.00012C94.3811 8.00012 96.04 6.21229 96.04 3.97225C96.0381 1.76165 94.2743 0.00012207 90.9896 0.00012207ZM90.9536 6.79071C89.7542 6.76758 89.2268 5.34152 89.2501 3.92598C89.2734 2.45891 89.9299 1.18009 91.0507 1.20112C92.1716 1.22215 92.7679 2.52622 92.7436 3.99224C92.7193 5.37518 92.1881 6.8149 90.9536 6.79071Z" fill="black"/>
</svg>
